<?xml version="1.0"?>
<svg width="640" height="479.99999999999994" xmlns="http://www.w3.org/2000/svg" xmlns:svg="http://www.w3.org/2000/svg" stroke="null" style="vector-effect: non-scaling-stroke;">
 <!-- Created with SVG-edit - http://svg-edit.googlecode.com/ -->

 <g stroke="null">
  <title stroke="null">Layer 1</title>
  <g transform="matrix(1.0070164995860507,0,0,1.0070164995860507,2.3592873751703394,-2.214750261220175) " id="svg_545">
   <!-- Created with Method Draw - http://github.com/duopixel/Method-Draw/ -->
   <g transform="matrix(1.0070164995860507,0,0,1.0070164995860507,2.3592873751703394,-2.214750261220175) " id="svg_546" stroke="null">
    <title transform="translate(-8.76545238494873,0) " stroke="null">background</title>
    <g stroke="null" id="svg_544" display="none">
     <rect id="svg_547" stroke="null" width="640" height="480" x="-8.765452" y="0" stroke-width="0" fill="url(#gridpattern)"/>
    </g>
   </g>
   <g transform="matrix(1.0070164995860507,0,0,1.0070164995860507,2.3592873751703394,-2.214750261220175) " stroke="null" id="svg_367">
    <path id="svg_441" fill="black" stroke="null" d="m-204.560011,457.155379c0,-73.22772 0.15977,-133.14131 0.42605,-133.14131c0.21303,0 1.43793,0.74559 2.71608,1.5977c1.27816,0.90536 2.71609,1.59769 3.1954,1.59769c1.11838,0 1.97049,2.13027 2.66282,6.60381c0.26628,1.97049 0.58582,3.72796 0.69234,3.78122c0.10651,0.05325 2.4498,0.26628 5.21914,0.37279c3.40841,0.15977 4.5268,0.05326 3.56818,-0.26628c-1.2249,-0.3728 -1.43792,-0.74559 -1.43792,-2.50306c0,-4.84634 2.18351,-6.55055 8.5743,-6.76358c5.48542,-0.15976 6.07124,0.21303 5.69844,3.83447c-0.26628,2.29003 0.31954,3.24865 1.01188,1.5977c0.42605,-1.27816 2.87585,-2.29003 5.11262,-2.23677c1.06513,0 1.70421,0.21302 1.38467,0.42605c-0.31954,0.15977 0.31954,0.47931 1.43793,0.58582c1.17164,0.15977 2.23677,0.05326 2.39654,-0.21303c0.15977,-0.31954 1.38467,-0.37279 2.76934,-0.15977c2.34329,0.3728 3.24865,1.17165 2.8226,2.55632c-0.15977,0.31954 -0.3728,1.33141 -0.58582,2.18351c-0.26629,1.2249 -0.15977,1.43793 0.37279,1.06514c0.3728,-0.26629 1.5977,-0.85211 2.76934,-1.2249c1.65095,-0.58583 2.13026,-0.58583 2.4498,0c0.3728,0.53256 0.58582,0.53256 1.27816,0c0.47931,-0.42606 0.8521,-0.47931 0.8521,-0.21303c0,0.26628 0.63908,0.53256 1.49118,0.58582c1.38467,0.10651 1.43793,0 1.27816,-2.18352c-0.26628,-2.87585 1.27816,-4.8996 4.15401,-5.69844c3.72796,-1.01188 5.91147,0.90536 5.21914,4.5268c-0.3728,1.86398 -0.05326,1.65095 0.8521,-0.47931c0.79885,-1.97049 2.39655,-3.24865 4.68658,-3.78121c1.11838,-0.26628 1.75746,-0.05326 2.76934,0.95862c0.90536,0.90536 1.38467,1.11838 1.54444,0.63907c0.4793,-1.11838 4.04749,-2.50305 5.64519,-2.13026c2.077,0.42606 3.08887,2.76934 2.23677,5.11263c-0.8521,2.50306 -0.79885,2.60957 1.81072,2.60957c2.18352,0 2.55632,-0.21303 3.35516,-1.5977c1.17165,-2.077 2.02375,-2.02374 2.4498,0.15977l0.3728,1.70421l1.01187,-2.23677c1.75747,-3.94099 6.87009,-5.11263 9.85246,-2.29003c1.11839,1.06513 1.17164,1.27815 0.47931,1.97049c-0.3728,0.42605 -0.74559,1.11839 -0.74559,1.54444c0,0.69233 1.81072,0.79885 12.94133,0.74559c7.08312,-0.05326 15.23137,-0.05326 18.10722,-0.05326l5.16588,0.05326l0,1.86398l0,1.86398l15.9237,0c8.78733,0 16.2965,0.15976 16.72255,0.31953c1.11838,0.42606 2.60957,-1.27815 2.23677,-2.50305c-0.37279,-1.06513 0.10651,-1.2249 4.10075,-1.01188c2.55632,0.10652 4.15401,-0.42605 4.15401,-1.33141c0,-1.06513 0.85211,-1.38467 9.05361,-3.94098c3.94098,-1.27816 10.172,-3.19539 13.79344,-4.31378c3.6747,-1.17164 6.76358,-1.97049 6.9766,-1.86398c0.15977,0.10651 1.43793,0.26628 2.8226,0.31954l2.50306,0.15977l0,3.3019c0,2.4498 0.21302,3.35517 0.79884,3.62145c0.47931,0.15977 0.95862,-0.05326 1.11839,-0.47931c0.21303,-0.53257 1.11839,-0.79885 2.8226,-0.79885c2.92911,0 3.51493,-0.37279 3.88772,-2.23677c0.21303,-1.17165 0.05326,-1.54444 -0.8521,-1.75747c-0.63908,-0.21302 -1.97049,-0.69233 -3.03562,-1.11838c-1.86398,-0.79885 -1.91724,-0.85211 -1.65096,-3.72796c0.21303,-2.39654 0.10652,-2.87585 -0.63907,-2.87585c-2.02375,0 -0.58583,-0.95862 3.19539,-2.13026c2.18352,-0.69234 4.15401,-1.49119 4.31378,-1.75747c0.31954,-0.47931 3.78121,-30.72901 9.21337,-79.72501c1.49119,-13.31413 3.03563,-27.21408 3.46168,-30.88878c1.59769,-13.79344 1.97049,-22.74054 1.70421,-42.33894c-0.15977,-16.72255 -0.3728,-20.71678 -1.33142,-26.36198c-0.58582,-3.6747 -2.4498,-16.13672 -4.10075,-27.69339c-1.70421,-11.55666 -3.14213,-21.08958 -3.19539,-21.19609c-0.10651,-0.10652 -1.91723,-0.53257 -4.10075,-1.01188c-2.13026,-0.42605 -5.21914,-1.27815 -6.81684,-1.91723c-3.62144,-1.43793 -4.10075,-2.71608 -1.43792,-3.83447c1.70421,-0.69234 1.86398,-0.90536 1.49118,-2.23677c-0.3728,-1.38467 -0.74559,-1.54444 -4.84634,-2.39655c-7.88197,-1.65095 -9.00036,-3.62144 -3.19539,-5.59193c3.3019,-1.11839 3.46167,-1.2249 3.46167,-2.87585c0,-1.49119 0.31954,-1.86398 2.66283,-3.08888c1.43792,-0.74559 2.71608,-1.54444 2.82259,-1.75747c0.10651,-0.26628 0.90536,-0.42605 1.75747,-0.42605c0.8521,0 1.54444,-0.21303 1.54444,-0.53257c0,-0.26628 0.69233,-0.53256 1.49118,-0.53256c1.54444,0 8.09499,-2.02375 11.13061,-3.46167c0.90536,-0.42606 1.91724,-0.79885 2.23677,-0.79885c1.17165,0 0.53257,-2.23678 -1.01187,-3.56819c-1.97049,-1.65095 -2.02375,-2.18352 -0.05326,-2.87585c1.06513,-0.3728 1.70421,-1.11839 2.18352,-2.66283c0.42605,-1.17164 0.85211,-1.86398 1.06513,-1.49118c0.21303,0.31954 0.53257,0.10651 0.69234,-0.63908c0.31954,-1.2249 0.31954,-1.2249 1.49118,-0.15977c1.06513,0.90536 1.17164,0.90536 0.8521,0.10652c-0.21302,-0.53257 -0.10651,-0.95862 0.15977,-0.95862c0.31954,0 0.53257,0.37279 0.53257,0.79885c0,0.42605 0.47931,0.79884 1.06513,0.79884c0.79885,0 1.17164,-0.47931 1.43792,-1.59769c0.15977,-0.85211 0.58583,-1.5977 0.95862,-1.5977c0.63908,0 1.27816,-7.98848 1.38467,-18.90606c0.05326,-2.60957 0.21303,-5.11263 0.3728,-5.48542c0.63908,-1.70421 1.17164,0.95861 1.2249,6.28427c0.05325,9.63943 0.74559,18.26698 1.43792,18.53326c0.3728,0.10652 0.63908,0.47931 0.63908,0.90537c0,0.4793 0.69234,0.58582 2.55631,0.4793c1.9705,-0.15977 2.29004,-0.10651 1.43793,0.31954c-0.90536,0.47931 -0.79885,0.53257 0.69234,0.3728c1.33141,-0.15977 1.7042,0 1.7042,0.74559c0,0.53257 0.21303,1.11839 0.53257,1.27816c0.26628,0.15977 0.53256,0.79884 0.53256,1.33141c0,0.58582 0.53257,1.17164 1.17165,1.38467c2.66282,0.79885 2.82259,1.38467 0.69233,3.19539c-1.49118,1.2249 -1.91723,1.91724 -1.65095,2.66283c0.3728,1.2249 4.52681,2.92911 6.17776,2.50305c0.69233,-0.21302 1.38467,0.05326 1.81072,0.63908c0.58582,0.79885 4.68657,2.23678 7.61568,2.60957c0.69234,0.10651 1.5977,0.47931 2.07701,0.90536c0.53256,0.42605 1.01187,0.69234 1.11838,0.58582c0.10652,-0.05325 1.33142,0.47931 2.76934,1.2249c2.39655,1.17165 2.66283,1.54444 2.8226,3.24865c0.15977,1.86398 0.31954,2.02375 2.82259,2.71608c5.59194,1.65096 5.64519,3.78122 0.15977,5.11263c-1.86398,0.42605 -4.31378,1.01187 -5.48542,1.27816c-1.81072,0.37279 -2.13026,0.63907 -2.29003,1.91723c-0.15977,1.2249 0.10651,1.54444 1.43793,2.02375c4.04749,1.43792 1.49118,3.56819 -6.33753,5.32565c-2.76934,0.58582 -5.32565,1.17164 -5.59193,1.27816c-0.31954,0.05325 -0.85211,2.13026 -1.2249,4.58006c-2.18352,14.59229 -4.0475,26.30872 -6.07125,38.55772l-2.29003,13.8467l0,24.76428c0,19.97119 0.15977,26.41523 0.90536,33.28532c0.53257,4.68658 1.70421,15.97696 2.55632,25.03057c0.90536,9.10686 2.71608,26.9478 4.04749,39.67611c1.33141,12.7283 2.98237,28.75852 3.6747,35.62861c0.69234,6.81683 1.38467,12.51528 1.49118,12.62179c0.10652,0.15977 2.18352,0.90537 4.52681,1.70421c2.39654,0.79885 4.36703,1.5977 4.36703,1.86398c0,0.21303 -0.15977,0.3728 -0.31954,0.31954c-0.79884,-0.10651 -1.2249,1.54444 -0.95861,3.62144c0.21302,2.02375 0.10651,2.29003 -1.2249,2.98237c-0.79885,0.42605 -2.29003,0.95862 -3.19539,1.17164c-0.95862,0.15977 -1.75747,0.63908 -1.81073,0.95862c-0.10651,0.95862 0.10652,3.78121 0.31954,4.95286c0.10652,0.53256 0.21303,1.65095 0.21303,2.50305c0.05326,1.5977 1.43793,2.02375 1.81072,0.53257c0.21303,-0.90536 0.26628,-0.90536 0.31954,0c0.05326,0.8521 0.42605,0.95862 2.55631,0.69233c1.43793,-0.15977 2.8226,-0.63908 3.14214,-1.11838c0.37279,-0.47931 0.8521,-0.7456 1.17164,-0.69234c0.31954,0.10651 0.90536,-0.31954 1.33141,-0.90536c0.79885,-1.01187 0.85211,-1.01187 1.91724,-0.05326c0.58582,0.53257 1.2249,1.43793 1.38467,1.9705c0.31954,1.01187 2.39654,1.43792 2.39654,0.4793c0,-0.31954 0.47931,-0.31954 1.2249,-0.10651c0.95862,0.3728 4.47355,0.42605 7.02986,0.10651c0.31954,-0.05325 1.17165,0.05326 1.91724,0.21303c1.54444,0.3728 3.6747,-1.2249 3.6747,-2.76934c0.05325,-2.50306 2.29003,-2.71608 2.87585,-0.31954c0.21303,0.85211 0.58582,1.17165 1.01187,0.90536c0.74559,-0.47931 1.17165,-0.58582 3.40842,-1.01187c1.54444,-0.31954 1.65095,-0.42605 1.11839,-1.54444c-0.42605,-1.01187 -0.31954,-1.65095 0.69233,-3.40842c0.63908,-1.2249 1.49119,-2.18352 1.81072,-2.18352c0.26629,0 1.43793,-0.58582 2.50306,-1.33141c2.39654,-1.59769 3.78121,-1.75746 6.44404,-0.58582c1.75746,0.74559 2.66283,0.79885 6.1245,0.3728c6.4973,-0.90537 7.24289,-0.90537 7.88196,-0.05326c0.53257,0.58582 0.90537,0.63908 1.86398,0.15977c1.91724,-0.90536 3.46168,-1.17164 4.26052,-0.63908c0.3728,0.21303 1.01188,0.15977 1.38467,-0.10651c0.31954,-0.31954 1.06513,-0.47931 1.5977,-0.42605c0.53257,0.10651 1.5977,0 2.4498,-0.21303c2.92911,-0.79885 6.17776,2.29003 6.23101,5.96473c0,1.81072 0.15977,2.23677 0.79885,1.97049c0.90536,-0.31954 2.66283,2.98237 2.18352,4.20727c-0.21303,0.63907 0.05325,0.79884 1.33141,0.69233c0.90536,-0.05326 1.75747,-0.31954 1.86398,-0.53256c0.15977,-0.26629 0.47931,-0.31954 0.74559,-0.15977c0.21303,0.15977 0.53257,-0.10652 0.74559,-0.53257c0.15977,-0.42605 0,-0.79885 -0.37279,-0.79885c-0.42606,-0.05325 -0.31954,-0.26628 0.21302,-0.69233c1.43793,-1.11839 1.70421,-2.55631 0.47931,-2.87585c-1.2249,-0.31954 -1.33141,-0.7456 -0.42605,-1.65096c0.74559,-0.74559 2.76934,-0.8521 2.29003,-0.15977c-0.15977,0.26629 0.05326,0.79885 0.42605,1.2249c0.42605,0.3728 0.63908,0.95862 0.53257,1.2249c-0.10652,0.31954 0.21302,1.06513 0.63907,1.5977c0.7456,0.95862 0.79885,0.74559 0.7456,-2.8226c-0.05326,-2.077 0.05325,-3.99423 0.21302,-4.20726c0.21303,-0.15977 0.3728,-0.79885 0.3728,-1.33141c0,-0.63908 0.37279,-0.95862 1.11838,-0.95862c0.63908,0 1.54444,-0.47931 2.07701,-1.06513c0.79885,-0.90536 1.70421,-1.06513 7.24289,-1.17165c6.1245,-0.15976 6.33752,-0.21302 6.49729,-1.33141c0.15977,-1.06513 0.47931,-1.2249 2.50306,-1.2249c1.86398,0 2.34329,0.21303 2.66282,1.2249l0.42606,1.17165l0.21302,-1.17165c0.31954,-1.65095 1.75747,-1.59769 1.75747,0.05326c0,1.27815 0,1.27815 1.65095,0.42605c3.19539,-1.75746 3.72796,-2.13026 3.72796,-2.4498c-0.05326,-1.01187 1.06513,-2.87585 3.03562,-4.8996c0.37279,-0.42605 0.53256,-0.74559 0.31954,-0.74559c-0.21303,0 0.47931,-0.85211 1.54444,-1.86398c2.077,-2.02375 3.56818,-2.39654 3.56818,-0.90536c0.05326,0.69233 0.26629,0.58582 1.2249,-0.53257c0.69234,-0.8521 1.38467,-1.49118 1.65096,-1.49118c0.79884,0 1.91723,1.54444 1.91723,2.60957c0,0.58582 0.21303,1.17165 0.47931,1.38467c0.26628,0.15977 0.90536,1.49118 1.38467,2.92911c0.53256,1.54444 1.2249,2.66283 1.65095,2.66283c0.42605,0 0.74559,-0.26629 0.74559,-0.53257c0,-1.06513 2.76934,-3.24865 3.40842,-2.66283c1.01187,0.79885 2.87585,0 3.19539,-1.38466c0.42605,-1.65096 2.55631,-3.88773 2.87585,-2.98237c0.21303,0.74559 1.70421,-0.47931 1.70421,-1.43793c0,-0.26628 0.26628,-0.69233 0.53257,-0.8521c0.31954,-0.21303 0.47931,-0.15977 0.42605,0.10651c-0.05326,0.21303 0.15977,0.95862 0.53256,1.65095c0.3728,0.63908 0.53257,1.49119 0.31954,1.81073c-0.26628,0.37279 -0.10651,0.47931 0.47931,0.26628c0.58582,-0.21303 1.01188,0.10651 1.38467,1.11839c0.31954,0.90536 0.53257,1.11838 0.53257,0.53256c0.10651,-1.81072 1.59769,-0.95862 2.18351,1.17164c0.42606,1.65096 0.85211,2.13027 1.75747,2.18352c0.63908,0 1.65095,0.26628 2.23677,0.53257c0.74559,0.31954 0.26629,0.37279 -1.43792,0.15977c-2.66283,-0.3728 -2.8226,-0.21303 -2.55632,2.13026c0.10652,1.33141 1.43793,2.66282 1.86398,1.91723c0.15977,-0.26628 0.74559,-0.53256 1.2249,-0.53256c0.63908,0 1.17165,-0.74559 1.65095,-2.50306c0.79885,-2.82259 1.54444,-3.99424 2.18352,-3.62144c0.69234,0.42605 0.31954,-2.60957 -0.37279,-3.35516c-1.2249,-1.27816 -0.85211,-6.23102 0.63907,-9.16012c1.27816,-2.50306 2.92911,-3.56819 2.92911,-1.91724c0,0.42605 0.26629,0.95862 0.63908,1.17164c0.31954,0.21303 0.42605,0.15977 0.21303,-0.21302c-0.15977,-0.31954 -0.05326,-1.17165 0.26628,-1.91724c0.47931,-1.01187 1.01187,-1.38467 2.02375,-1.27815c0.79885,0.05325 1.70421,-0.05326 2.077,-0.31954c0.42605,-0.26629 0.63908,0 0.69234,0.8521c0.05325,1.06513 0.10651,1.01188 0.47931,-0.31954c0.69233,-2.34328 3.14213,-3.46167 3.24864,-1.49118c0,0.53257 0.21303,0.3728 0.42606,-0.47931c0.63907,-2.02375 1.59769,-3.6747 2.18351,-3.6747c0.74559,0 2.23678,3.6747 2.39655,5.85822c0.31954,4.10075 0.8521,8.73407 1.11838,9.10686c0.26629,0.47931 -1.33141,1.11839 -1.91723,0.74559c-0.85211,-0.53256 -2.13026,2.07701 -2.13026,4.31378c0,2.60957 1.06513,3.88773 2.29003,2.66283c0.42605,-0.42605 1.65095,-0.95862 2.71608,-1.11839c1.06513,-0.21302 1.91724,-0.47931 1.91724,-0.63908c0,-0.10651 -0.47931,-1.17164 -1.01188,-2.29003l-1.01187,-2.13026l1.27815,0c0.69234,0 1.27816,-0.21302 1.27816,-0.53256c0,-1.01188 0.10651,-1.33142 0.63908,-1.97049c0.31954,-0.3728 0.79885,-0.53257 1.06513,-0.3728c0.26628,0.15977 1.17164,-0.26628 1.91723,-1.01187c0.79885,-0.74559 2.50306,-1.97049 3.78122,-2.66283c2.18351,-1.2249 2.4498,-1.27816 4.36703,-0.63908c2.39654,0.85211 3.99424,2.23678 4.26052,3.72796c0.10652,0.53256 0.79885,1.17164 1.54444,1.38467c0.74559,0.21302 1.06513,0.37279 0.69234,0.42605c-0.42606,0.05326 -0.42606,0.42605 0,1.65095c0.58582,1.49119 0.69233,1.54444 1.81072,0.79885c0.74559,-0.47931 1.27816,-0.58582 1.49118,-0.26628c0.47931,0.79885 8.30802,0.53256 9.10687,-0.26628c0.37279,-0.3728 0.8521,-1.27816 1.06513,-2.02375c0.37279,-1.54444 4.15401,-5.16588 5.32565,-5.16588c0.42605,0 1.17164,-0.26629 1.75746,-0.58583c2.39655,-1.54444 7.50917,1.49119 7.50917,4.47355c0,0.63908 0.53257,1.49118 1.17165,1.91724c0.95861,0.58582 1.17164,0.58582 1.59769,-0.15977c0.58582,-1.06513 2.76934,-1.11839 3.62145,-0.05326c0.74559,0.90536 2.13026,1.06513 2.13026,0.26628c0,-0.8521 1.43792,-0.63908 2.39654,0.3728c0.74559,0.74559 0.95862,0.74559 1.38467,0.10651c0.26628,-0.42605 0.47931,-1.01187 0.47931,-1.38467c0,-0.31954 0.47931,-0.95862 1.06513,-1.38467c0.8521,-0.58582 1.01187,-1.11838 0.74559,-2.18352c-0.26628,-1.2249 -0.15977,-1.38466 1.06513,-1.38466c0.79885,0 1.38467,-0.31954 1.38467,-0.69234c0,-0.8521 1.70421,-2.50306 2.55631,-2.50306c0.3728,0 0.63908,0.3728 0.63908,0.79885c0,0.69234 0.3728,0.79885 1.86398,0.47931c1.65095,-0.26628 2.077,-0.10651 3.35516,1.17164c0.74559,0.85211 1.33141,1.75747 1.27816,2.02375c-0.10652,0.26628 0.37279,0.31954 1.06513,0.15977c0.63908,-0.21302 1.49118,-0.10651 1.81072,0.21303c0.47931,0.37279 0.8521,0.21302 1.33141,-0.63908c0.31954,-0.63908 1.49119,-2.13026 2.55632,-3.24865l1.97049,-2.02375l1.06513,1.43793c1.2249,1.70421 2.13026,3.88773 2.60957,6.44404c0.37279,1.75746 1.01187,2.23677 1.49118,1.06513c0.21303,-0.53257 0.42605,-0.47931 0.8521,0.10651c0.3728,0.53257 0.58583,0.58582 0.58583,0.15977c0,-0.37279 0.58582,-0.69233 1.33141,-0.69233c0.74559,0 1.33141,-0.26629 1.33141,-0.58583c0,-0.31953 0.63908,-0.4793 1.49118,-0.37279c1.11839,0.10651 1.65096,-0.21303 2.50306,-1.43793c0.53257,-0.8521 1.01187,-1.70421 1.06513,-1.86397c0.15977,-1.11839 1.54444,-2.66283 2.34329,-2.66283c0.53256,0 1.33141,-0.42605 1.70421,-0.90536c0.42605,-0.53257 0.47931,-0.74559 0.10651,-0.53257c-0.31954,0.21303 -0.74559,0.15977 -0.95862,-0.15977c-0.15977,-0.26628 -0.05325,-0.53256 0.31954,-0.53256c0.79885,0 -0.47931,-1.5977 -1.33141,-1.5977c-0.31954,0 -1.01188,-0.37279 -1.5977,-0.79885c-0.90536,-0.69233 -0.90536,-0.79884 -0.15977,-1.54443c1.06513,-1.06513 1.65096,-1.06513 1.2249,-0.05326c-0.15977,0.42605 -0.21302,0.79885 -0.10651,0.79885c0.42605,0 2.98237,-2.66283 2.98237,-3.19539c0,-0.7456 1.86397,-0.63908 4.04749,0.26628c1.81072,0.74559 2.02375,0.69233 4.15401,-0.53257c2.60957,-1.54444 6.17776,-1.81072 7.24289,-0.53256c0.37279,0.42605 0.8521,0.69233 1.06513,0.53256c0.21302,-0.10651 0.95861,0.26629 1.65095,0.85211c2.02375,1.81072 4.20726,2.39654 8.09499,2.29003c2.60957,-0.10652 3.56819,0.05325 3.56819,0.58582c0,0.3728 0.31954,0.90536 0.69233,1.2249c0.47931,0.42605 0.95862,0.26628 1.70421,-0.63908l1.06513,-1.2249l1.01187,1.27816c0.7456,1.01187 1.27816,1.2249 2.39655,0.95862c1.81072,-0.42606 2.71608,-1.33142 1.38467,-1.33142c-0.85211,0 -0.85211,-0.10651 0.15977,-1.01187c0.63908,-0.53257 1.17164,-1.33141 1.17164,-1.70421c0,-0.53257 -0.10651,-0.58582 -0.42605,-0.10651c-0.31954,0.47931 -0.58582,0.37279 -1.06513,-0.3728c-0.74559,-1.2249 -0.69234,-1.27816 1.17164,-0.53256c0.90536,0.31953 1.38467,0.31953 1.38467,0c0,-0.31954 -0.37279,-0.53257 -0.79885,-0.53257c-0.42605,0 -0.79884,-0.21303 -0.79884,-0.53256c0,-0.26629 0.26628,-0.53257 0.58582,-0.53257c0.42605,0 0.42605,-0.21303 0.05325,-0.69233c-0.4793,-0.53257 -0.31954,-0.90537 0.47931,-1.49119c0.63908,-0.42605 1.86398,-1.38467 2.8226,-2.18351c0.90536,-0.79885 2.077,-1.49119 2.60957,-1.49119c0.58582,0 1.11838,-0.47931 1.27815,-1.01187c0.31954,-1.33141 2.8226,-1.81072 3.99424,-0.74559c0.47931,0.42605 1.11839,0.63908 1.43793,0.47931c0.58582,-0.3728 1.81072,1.49118 1.27816,2.02374c-0.15977,0.15977 -0.05326,0.31954 0.26628,0.31954c0.37279,0 0.63908,-0.42605 0.69233,-0.90536c0.10652,-3.99424 0.47931,-5.69845 2.02375,-8.89384c0.90536,-1.97049 1.81072,-3.56818 1.86398,-3.46167c0.53256,0.58582 2.4498,4.31378 2.4498,4.79309c0,0.26628 0.47931,1.49118 1.01187,2.66282c0.58582,1.17165 1.01188,3.14214 1.01188,4.31378c0,1.43793 0.26628,2.4498 0.8521,2.8226c0.47931,0.37279 0.85211,1.06513 0.85211,1.54444c0,1.01187 2.39654,1.2249 2.98236,0.21302c0.26628,-0.42605 0.58582,-0.31954 1.06513,0.3728c0.58582,0.79884 0.85211,0.8521 1.54444,0.26628c0.42605,-0.3728 0.79885,-1.01187 0.79885,-1.38467c0,-0.8521 0.8521,-1.01187 1.33141,-0.21303c0.3728,0.58583 2.55631,0.69234 5.00611,0.21303c1.27816,-0.26628 1.65096,-0.63908 1.65096,-1.5977c0,-0.79884 0.31954,-1.27815 0.79884,-1.27815c0.42606,0 0.85211,-0.21303 0.85211,-0.53257c0.15977,-1.2249 0.26628,-1.38467 0.90536,-2.13026c0.3728,-0.42605 1.11839,-1.43792 1.75746,-2.23677c1.33142,-1.81072 2.60957,-1.86398 4.15401,-0.21303c1.01188,1.06513 1.49119,1.2249 2.55632,0.79885c1.43792,-0.53257 4.79308,-0.15977 5.27239,0.63908c0.47931,0.79885 2.60957,-1.01188 3.88773,-3.24865c1.33141,-2.34329 1.49118,-2.39654 3.62144,-1.49118c1.27816,0.58582 2.13026,1.38467 3.40842,3.19539c0.15977,0.26628 0.90536,0.21302 1.65095,-0.05326c1.5977,-0.58582 4.73983,0.05326 5.96473,1.27816c0.63908,0.69233 1.06513,0.15977 2.98237,-3.88773c1.27815,-2.55631 2.34328,-4.73983 2.4498,-4.84634c0.10651,-0.10651 0.53256,0.10651 1.01187,0.47931c0.53257,0.42605 0.79885,0.47931 0.79885,0.05325c0,-0.31953 0.47931,-0.58582 1.01187,-0.58582c1.43793,0 4.31378,3.78122 4.31378,5.75171c0,1.38467 0.15977,1.54444 1.38467,1.27815c1.01187,-0.15977 1.17164,-0.37279 0.63908,-0.69233c-0.3728,-0.26628 -0.42605,-0.47931 -0.10651,-0.47931c0.4793,0 2.02374,-3.62144 2.077,-4.79309c0.05326,-0.58582 0.90536,-1.59769 1.33141,-1.59769c0.26629,0 0.69234,0.63908 0.85211,1.49118c0.21302,0.79885 0.79884,2.02375 1.33141,2.76934c0.47931,0.74559 1.06513,2.23677 1.2249,3.3019c0.21303,1.11839 0.63908,2.18352 1.01187,2.39655c0.3728,0.26628 0.95862,1.01187 1.27816,1.75746l0.58582,1.33142l0.63908,-1.5977c1.81072,-4.31378 1.43793,-4.10075 4.20727,-2.077c4.04749,2.9291 5.80496,3.56818 8.46778,2.87585c1.54444,-0.3728 2.60957,-0.3728 3.30191,0c0.63907,0.31954 1.11838,0.37279 1.33141,0c0.58582,-0.95862 4.26052,-2.39655 6.23101,-2.39655c1.2249,0 2.60957,0.47931 3.6747,1.27816c1.38467,1.01187 1.75747,1.11839 2.07701,0.53257c0.31954,-0.58583 2.34328,-0.79885 8.62755,-0.90537c5.96473,-0.10651 8.46779,-0.37279 9.31989,-0.95861c1.06513,-0.69234 1.2249,-0.63908 1.70421,0.21302c0.58582,1.06513 3.6747,1.43793 17.09535,2.02375l5.59193,0.26628l2.66283,-2.4498l2.66282,-2.4498l4.10076,0.31954c2.66282,0.15977 4.79308,0.63908 5.96473,1.33142c1.2249,0.63907 3.14213,1.06513 5.48542,1.17164c3.3019,0.15977 3.62144,0.26628 3.78121,1.38467c0.15977,1.06513 0.69234,1.43793 1.91724,1.2249c0.26628,-0.05326 0.8521,0.05326 1.33141,0.26628c0.47931,0.21303 1.59769,0.42605 2.50305,0.42605c1.38467,0.05326 1.75747,-0.21302 2.29004,-1.54444c2.29003,-5.69844 2.98236,-6.28426 3.56818,-3.19539c0.15977,1.01188 0.42605,1.86398 0.58582,1.86398c0.10652,0 0.90536,-0.53256 1.70421,-1.11839c1.70421,-1.2249 2.71608,-1.01187 2.71608,0.58583c0,0.69233 0.26629,0.90536 0.79885,0.74559c0.53257,-0.21303 1.01188,0.15977 1.49119,1.17164c0.31953,0.85211 1.2249,2.18352 1.91723,3.03562c1.54444,1.70421 2.18352,1.17165 2.18352,-1.91723c0,-2.50306 0.95861,-4.58006 1.59769,-3.51493c0.31954,0.47931 0.53257,0.31954 0.79885,-0.69234c0.3728,-1.54444 2.18352,-2.29003 3.30191,-1.38467c0.58582,0.42606 0.69233,28.97155 0.69233,155.98835l0,155.45579l-415.93343,0l-415.93343,0l0,-133.1413zm22.20797,-119.08158c-0.15977,-0.15977 -0.63908,-0.21303 -1.01187,-0.05326c-0.42606,0.15977 -0.26629,0.31954 0.31953,0.31954c0.58583,0.05325 0.90537,-0.10652 0.69234,-0.26628zm54.90747,-0.26629c-0.53256,-0.26628 -0.95861,-0.90536 -0.95861,-1.33141c0,-0.42605 -0.26629,-0.63908 -0.58583,-0.47931c-0.63907,0.42605 0.90536,2.39654 1.86398,2.39654c0.31954,0 0.15977,-0.26628 -0.31954,-0.58582zm-70.45837,-1.91723c-0.21303,-2.23678 -0.63908,-2.8226 -1.06514,-1.43793c-0.21302,0.53257 -0.58582,1.43793 -0.8521,1.91724c-0.63908,1.2249 -0.63908,1.2249 0.79885,1.27815c1.17164,0.10652 1.27815,-0.10651 1.11839,-1.75746zm26.25546,-0.47931c0.10651,-0.05326 -0.42605,-0.05326 -1.11839,0c-0.79884,0 -1.2249,0.31954 -1.06513,0.74559c0.21303,0.53257 0.47931,0.53257 1.17165,0c0.4793,-0.3728 0.90536,-0.69233 1.01187,-0.74559zm236.83175,0.90536c0.15977,-0.31954 0.10651,-1.49118 -0.05326,-2.71608l-0.37279,-2.18352l-4.31378,0.15977c-4.0475,0.15977 -4.31378,0.21303 -4.47355,1.43793c-0.10651,0.63907 -0.05326,1.81072 0.10651,2.50305c0.31954,1.2249 0.53257,1.27816 4.58007,1.27816c2.29003,0 4.31377,-0.21303 4.5268,-0.47931zm4.5268,-0.26628c0,-0.42605 0.15977,-1.11839 0.31954,-1.5977c0.21303,-0.58582 0.05326,-0.8521 -0.53256,-0.8521c-0.58582,0 -0.85211,0.47931 -0.85211,1.59769c0,0.90536 0.26629,1.5977 0.53257,1.5977c0.31954,0 0.53256,-0.31954 0.53256,-0.74559zm0.53257,-3.78122c0,-0.42605 -0.47931,-0.79884 -1.06513,-0.79884c-1.06513,0 -1.38467,0.58582 -0.69234,1.2249c0.63908,0.69233 1.75747,0.37279 1.75747,-0.42606zm-36.58723,-0.63907c-0.69234,-0.10652 -1.86398,-0.10652 -2.66283,0c-0.8521,0.10651 -0.26628,0.21302 1.17165,0.21302c1.49118,0 2.13026,-0.10651 1.49118,-0.21302zm218.99081,-12.94134c0.15977,-0.31954 0.15977,-1.06513 0,-1.65095c-0.31954,-0.90536 -0.4793,-1.01187 -0.8521,-0.42605c-0.63908,1.01187 -0.58582,2.60957 0,2.60957c0.31954,0 0.69233,-0.26629 0.8521,-0.53257zm-223.99692,-6.76358c0.05325,-0.69233 -0.15977,-1.2249 -0.47931,-1.2249c-0.26629,0 -0.53257,1.11839 -0.47931,2.55632c0.05326,2.02374 0.10651,2.23677 0.47931,1.17164c0.21302,-0.74559 0.42605,-1.86398 0.47931,-2.50306zm39.78262,2.39655c-0.15977,-0.69234 -0.31954,-1.75747 -0.31954,-2.39655c0,-0.74559 -0.31954,-1.2249 -0.79885,-1.2249c-0.58582,0 -0.79885,0.63908 -0.79885,2.39655c0,2.077 0.15977,2.39654 1.11839,2.39654c0.90536,0 1.06513,-0.21303 0.79885,-1.17164zm-30.19645,-0.21303c1.27816,-0.26628 1.65095,-0.58582 1.43793,-1.2249c-0.21303,-0.58582 -0.10652,-0.53256 0.4793,0.15977c0.69234,0.95862 0.79885,-0.21303 0.79885,-11.29038c0,-6.81684 0.21303,-12.35552 0.42605,-12.35552c0.21303,0 0.3728,1.91724 0.26629,4.26053c-0.10652,2.50305 0.05325,4.26052 0.37279,4.26052c0.31954,0 0.53257,-5.21914 0.53257,-14.05972l0,-14.05973l-1.17165,-0.31953c-0.69233,-0.15977 -2.13026,-0.31954 -3.19539,-0.31954c-2.39654,0 -1.97049,-2.23678 -4.42029,22.9003c-1.01187,10.70456 -1.97049,20.07771 -2.02375,20.92981c-0.15977,1.38467 -0.10651,1.43793 2.29003,1.43793c1.38467,0 3.30191,-0.15977 4.20727,-0.31954zm25.08382,-0.95862c0,-0.58582 -0.47931,-6.1245 -1.06513,-12.30225c-0.53256,-6.1245 -1.38467,-15.71068 -1.86398,-21.30261c-0.47931,-5.53868 -0.95861,-10.22525 -1.06513,-10.33177c-0.10651,-0.10651 -1.06513,0 -2.077,0.15977l-1.86398,0.3728l-0.05326,13.15436c0,7.24289 0.15977,17.1486 0.31954,22.0482l0.3728,8.89384l1.65095,0.15977c4.58006,0.47931 5.64519,0.31954 5.64519,-0.85211zm180.9124,-3.88772c-0.10651,-1.11839 -0.21302,-0.31954 -0.21302,1.70421c0,2.077 0.10651,2.9291 0.21302,2.02374c0.10652,-0.95861 0.10652,-2.66282 0,-3.72795zm-1.59769,3.46167c-0.15977,-0.42605 -0.31954,-0.26628 -0.31954,0.31954c-0.05326,0.58582 0.10651,0.90536 0.26628,0.69233c0.15977,-0.15976 0.21303,-0.63907 0.05326,-1.01187zm-200.29778,-2.39654c-0.53256,-0.53257 -1.01187,0.26628 -0.53256,0.95861c0.31954,0.58583 0.42605,0.58583 0.63908,0c0.10651,-0.37279 0.05325,-0.79884 -0.10652,-0.95861zm220.00269,0.26628c-0.15977,-0.42605 -0.31954,-0.26628 -0.31954,0.31954c-0.05325,0.58582 0.10651,0.90536 0.26628,0.69233c0.15977,-0.15977 0.21303,-0.63907 0.05326,-1.01187zm-219.78966,-2.29003c0,-0.74559 -0.21303,-1.33141 -0.42605,-1.33141c-0.21303,0 -0.47931,0.58582 -0.53257,1.33141c-0.05326,0.74559 0.15977,1.33141 0.42605,1.33141c0.31954,0 0.53257,-0.58582 0.53257,-1.33141zm-12.83482,-7.02986c0.31954,-3.19539 0.74559,-7.02986 0.90536,-8.52104c0.21302,-1.5977 0.10651,-2.8226 -0.15977,-2.8226c-0.26628,0 -0.79885,3.19539 -1.17165,7.08312c-0.37279,3.83447 -0.79884,7.66894 -0.95861,8.52104c-0.15977,0.79885 -0.05326,1.43793 0.21302,1.43793c0.31954,0 0.79885,-2.55632 1.17165,-5.69845zm37.86538,4.5268c0,-0.69233 -0.37279,-4.31377 -0.79884,-8.14824c-0.42606,-3.78122 -0.79885,-7.08312 -0.79885,-7.29615c0,-0.26628 -0.3728,-0.42605 -0.85211,-0.42605c-0.69233,0 -0.79884,0.42605 -0.53256,2.55631c0.15977,1.38467 0.42605,4.31378 0.58582,6.4973c0.47931,6.39078 0.79885,7.98848 1.65095,7.98848c0.42605,0 0.74559,-0.53257 0.74559,-1.17165zm-25.03056,-2.55631c0,-1.75746 -0.21303,-3.19539 -0.42605,-3.19539c-0.21303,0 -0.47931,1.43793 -0.53257,3.19539c-0.05326,1.86398 0.10651,3.19539 0.42605,3.19539c0.31954,0 0.53257,-1.38467 0.53257,-3.19539zm0,-4.26052c0,-0.26628 -0.21303,-0.53257 -0.53257,-0.53257c-0.26628,0 -0.53256,0.26629 -0.53256,0.53257c0,0.31954 0.26628,0.53256 0.53256,0.53256c0.31954,0 0.53257,-0.21302 0.53257,-0.53256zm326.99504,0c0,-0.26628 -0.42605,-0.53257 -0.90536,-0.53257c-0.79885,0 -0.85211,0.10652 -0.15977,0.53257c1.01187,0.63908 1.06513,0.63908 1.06513,0zm3.19539,-2.66283c-1.06513,-0.69233 -2.8226,-0.69233 -2.39654,0c0.15977,0.31954 0.95861,0.53257 1.75746,0.53257c1.11839,0 1.27816,-0.10652 0.63908,-0.53257zm-8.73407,-0.58582c0.3728,-0.63908 -1.17164,-2.4498 -1.70421,-1.97049c-0.42605,0.47931 0.26628,2.55631 0.85211,2.55631c0.26628,0 0.63907,-0.26628 0.8521,-0.58582zm-332.64023,-10.06548c0,-0.31954 0.37279,-4.0475 0.79885,-8.36128c0.47931,-4.26052 0.74559,-7.88196 0.58582,-7.98847c-0.3728,-0.3728 -0.74559,2.18351 -1.54444,10.11874c-0.3728,3.72795 -0.53257,6.76357 -0.26628,6.76357c0.21302,0 0.42605,-0.26628 0.42605,-0.53256zm34.08417,-0.79885c0,-1.54444 -0.95862,-11.50341 -1.38467,-13.95321c-0.15977,-0.95862 -0.53256,-1.75746 -0.90536,-1.75746c-0.53256,0 -0.53256,1.38467 -0.05325,6.81683c0.37279,3.72796 0.69233,7.56243 0.69233,8.52104c0.05326,2.07701 1.65095,2.50306 1.65095,0.3728zm-31.20832,-27.7999c0.90536,-7.93523 1.01187,-9.53292 0.63908,-9.16013c-0.21303,0.21303 -1.91724,14.6988 -1.91724,16.34976c0,0.42605 0.10652,0.69233 0.21303,0.58582c0.15977,-0.10651 0.63908,-3.62144 1.06513,-7.77545zm29.0248,6.65706c-0.05325,-3.19539 -1.38466,-15.39113 -1.7042,-15.71067c-0.90536,-0.85211 -1.01188,0.8521 -0.42606,7.13637c0.3728,3.72796 0.7456,7.45591 0.90536,8.30802c0.3728,1.75746 1.27816,1.91723 1.2249,0.26628zm-22.5275,-1.49118l1.81072,0l0,-16.61604c0,-9.16012 0.10651,-22.0482 0.26628,-28.652c0.15977,-7.82871 0.05326,-11.23713 -0.26628,-9.85246c-0.26628,1.17164 -0.53257,3.94098 -0.58582,6.1245c-0.05326,2.18352 -0.31954,4.58006 -0.53257,5.32565c-0.21302,0.74559 -0.79885,5.05937 -1.27816,9.58618c-0.42605,4.5268 -1.38466,14.11297 -2.13026,21.24935c-0.74559,7.18963 -1.17164,13.52715 -1.01187,14.11298c0.3728,1.06513 0.3728,1.06513 1.17164,-0.10652c0.53257,-0.79885 1.27816,-1.17164 2.55632,-1.17164zm18.05396,-0.90536c-0.10652,-1.11839 -0.74559,-7.88197 -1.33142,-15.0716c-1.2249,-15.07159 -1.54444,-17.78768 -1.97049,-17.36162c-0.58582,0.58582 -0.58582,6.9766 0,7.3494c0.3728,0.21302 0.3728,0.58582 0.05326,1.06513c-0.74559,1.01187 -0.90536,3.99424 -0.21303,4.42029c0.3728,0.21302 0.42606,0.58582 0.10652,0.95862c-0.58583,0.74559 -0.53257,13.68692 0.05325,14.59228c0.21303,0.31954 0.15977,0.74559 -0.10651,0.90536c-0.26628,0.21303 -0.42605,1.01188 -0.31954,1.81073c0.10651,0.79884 0.21303,1.59769 0.21303,1.86397c0.05325,0.21303 0.63907,0.3728 1.33141,0.3728c0.74559,0 1.49118,0.26628 1.65095,0.53256c0.58582,1.01188 0.74559,0.53257 0.53257,-1.43792zm-22.31449,-24.92405c0.42606,-3.99424 0.69234,-7.7222 0.63908,-8.20151c-0.10651,-0.47931 -0.47931,2.02375 -0.8521,5.53868c-0.3728,3.51493 -0.79885,7.3494 -0.95862,8.52104c-0.21302,1.17165 -0.15977,1.97049 0,1.81073c0.21303,-0.21303 0.74559,-3.62145 1.17164,-7.66894zm24.71103,6.01798c-0.05326,-2.92911 -1.49118,-15.39113 -1.81072,-15.71067c-0.74559,-0.74559 -0.74559,0.47931 0,7.82871c0.37279,4.26052 0.74559,8.14825 0.74559,8.68081c0,0.47931 0.26628,0.90536 0.53257,0.90536c0.31953,0 0.53256,-0.79885 0.53256,-1.70421zm-6.01799,-18.3735c-0.15977,-0.53256 -0.26628,-0.10651 -0.26628,0.90536c0,1.01188 0.10651,1.43793 0.26628,0.95862c0.10652,-0.53256 0.10652,-1.38467 0,-1.86398zm3.35516,-9.47966c-0.37279,-4.26052 -0.79884,-7.72219 -0.95861,-7.72219c-0.31954,0 0.37279,13.74018 0.79884,15.07159c0.69234,2.50306 0.79885,-0.26628 0.15977,-7.3494zm-3.88772,0.95862c-0.10651,-1.11839 -0.21303,-0.31954 -0.21303,1.70421c0,2.077 0.10652,2.92911 0.21303,2.02375c0.10651,-0.95862 0.10651,-2.66283 0,-3.72796zm-16.50952,2.92911c-0.15977,-0.3728 -0.26629,-0.10651 -0.26629,0.63908c0,0.74559 0.10652,1.01187 0.26629,0.69233c0.10651,-0.37279 0.10651,-1.01187 0,-1.33141zm2.02374,-83.87902c0.26629,-1.70421 -2.18351,-45.37456 -2.55631,-45.74735c-0.26628,-0.26629 -5.69845,-0.42606 -5.91147,-0.15977c-0.10652,0.10651 0.37279,3.83447 1.06513,8.2015c2.4498,15.33788 6.07124,39.03703 6.07124,39.35657c0,0.15977 0.21303,0.31954 0.47931,0.31954c0.26628,0 0.63908,-0.90536 0.8521,-1.97049zm18.63979,0.79885c0.15977,-0.69234 1.01187,-5.75171 1.86398,-11.34364c0.8521,-5.53868 2.4498,-15.28462 3.46167,-21.56889c2.4498,-15.0716 2.50306,-14.05973 -0.85211,-13.68693c-1.54443,0.21303 -2.82259,0.42605 -2.87585,0.47931c-0.21302,0.21302 -2.76934,24.65777 -3.56818,33.71138c-0.53257,6.17775 -0.3728,11.82294 0.37279,12.99459c0.53257,0.95861 1.27816,0.63908 1.5977,-0.58582zm-4.15401,-39.99565c-0.05326,-3.56819 -0.15977,-0.47931 -0.15977,6.81683c0,7.3494 0.10651,10.22526 0.15977,6.4973c0.10651,-3.78121 0.10651,-9.74594 0,-13.31413zm-11.18387,6.9766c-0.10651,-0.69233 -0.21303,-0.15977 -0.21303,1.17165c0,1.33141 0.10652,1.86397 0.21303,1.2249c0.10651,-0.69234 0.10651,-1.75747 0,-2.39655zm-0.10651,-6.92335c-0.15977,-6.6038 -0.26629,-7.08311 -0.79885,-4.68657c-0.53257,2.13026 -0.05326,10.11874 0.58582,10.11874c0.21303,0 0.31954,-2.4498 0.21303,-5.43217zm6.17775,-58.58217c-0.42605,-1.54444 -0.47931,-1.27815 -0.53256,2.07701c-0.05326,2.077 0.10651,4.26052 0.37279,4.79308c0.58582,1.49119 0.79885,-4.79308 0.15977,-6.87009zm-0.21302,-5.32565c-0.15977,-0.42605 -0.31954,-0.26628 -0.31954,0.31954c-0.05326,0.58582 0.10651,0.90536 0.26628,0.69233c0.15977,-0.15977 0.21303,-0.63907 0.05326,-1.01187z"/>
   </g>
  </g>
  <g stroke="null" id="svg_182"/>
 </g>
</svg>